# xmcd
#
# Track frame offsets:
#	150
#	27033
#	44067
#	62827
#	84254
#	94228
#	119505
#	137941
#	154158
#	172482
#
# Disc length: 2544 seconds
#
# Revision: 0
# Processed by: cddbd v1.5.2PL0 Copyright (c) Steve Scherf et al.
# Submitted via: EZCDAudioConverter 2.1.7.1
#
DISCID=8f09ee0a
DTITLE=Woods - City Sun Eater In The River Of Light
DYEAR=1900
DGENRE=
TTITLE0=Sun City Creeps
TTITLE1=Creature Comfort
TTITLE2=Morning Light
TTITLE3=Can't See At All
TTITLE4=Hang It On Your Wall
TTITLE5=The Take
TTITLE6=I See In The Dark
TTITLE7=Politics Of Free
TTITLE8=The Other Side
TTITLE9=Hollow Home
EXTD=
EXTT0=
EXTT1=
EXTT2=
EXTT3=
EXTT4=
EXTT5=
EXTT6=
EXTT7=
EXTT8=
EXTT9=
PLAYORDER=
